<mxfile host="Electron" modified="2024-04-19T03:21:05.521Z" agent="Mozilla/5.0 (X11; Linux x86_64) AppleWebKit/537.36 (KHTML, like Gecko) draw.io/24.2.5 Chrome/120.0.6099.109 Electron/28.1.0 Safari/537.36" etag="1ruXwGlCsTapfwrcCwD1" version="24.2.5" type="device">
  <diagram name="第 1 页" id="E8fWfTJ2j5ObK_sPusMv">
    <mxGraphModel dx="309" dy="377" grid="1" gridSize="10" guides="1" tooltips="1" connect="1" arrows="1" fold="1" page="0" pageScale="1" pageWidth="827" pageHeight="1169" math="0" shadow="0">
      <root>
        <mxCell id="0" />
        <mxCell id="1" parent="0" />
        <mxCell id="kTx4A98cEadDEtc7m0b7-19" value="&lt;font style=&quot;font-size: 10px;&quot;&gt;f(b)&lt;/font&gt;" style="whiteSpace=wrap;html=1;strokeColor=#6c8ebf;fillColor=#dae8fc;opacity=50;" parent="1" vertex="1">
          <mxGeometry x="420" y="440" width="40" height="40" as="geometry" />
        </mxCell>
        <mxCell id="kTx4A98cEadDEtc7m0b7-18" value="&lt;font style=&quot;font-size: 10px;&quot;&gt;b = f(a)&lt;/font&gt;" style="whiteSpace=wrap;html=1;strokeColor=#b85450;fillColor=#f8cecc;opacity=50;" parent="1" vertex="1">
          <mxGeometry x="340" y="480" width="80" height="120" as="geometry" />
        </mxCell>
        <mxCell id="kTx4A98cEadDEtc7m0b7-17" value="&lt;font style=&quot;font-size: 10px;&quot;&gt;f(a)&lt;/font&gt;" style="whiteSpace=wrap;html=1;strokeColor=#6c8ebf;fillColor=#dae8fc;opacity=50;" parent="1" vertex="1">
          <mxGeometry x="340" y="440" width="40" height="40" as="geometry" />
        </mxCell>
        <mxCell id="kTx4A98cEadDEtc7m0b7-15" value="a" style="whiteSpace=wrap;html=1;strokeColor=#b85450;fillColor=#f8cecc;opacity=50;" parent="1" vertex="1">
          <mxGeometry x="200" y="480" width="140" height="120" as="geometry" />
        </mxCell>
        <mxCell id="kTx4A98cEadDEtc7m0b7-1" value="" style="endArrow=none;html=1;rounded=0;dashed=1;dashPattern=8 8;opacity=50;" parent="1" edge="1">
          <mxGeometry width="50" height="50" relative="1" as="geometry">
            <mxPoint x="200" y="400" as="sourcePoint" />
            <mxPoint x="200" y="600" as="targetPoint" />
          </mxGeometry>
        </mxCell>
        <mxCell id="kTx4A98cEadDEtc7m0b7-2" value="" style="endArrow=none;html=1;rounded=0;dashed=1;dashPattern=8 8;opacity=50;" parent="1" edge="1">
          <mxGeometry width="50" height="50" relative="1" as="geometry">
            <mxPoint x="280" y="400" as="sourcePoint" />
            <mxPoint x="280" y="600" as="targetPoint" />
          </mxGeometry>
        </mxCell>
        <mxCell id="kTx4A98cEadDEtc7m0b7-3" value="" style="endArrow=none;html=1;rounded=0;dashed=1;dashPattern=8 8;opacity=50;" parent="1" edge="1">
          <mxGeometry width="50" height="50" relative="1" as="geometry">
            <mxPoint x="360" y="400" as="sourcePoint" />
            <mxPoint x="360" y="600" as="targetPoint" />
          </mxGeometry>
        </mxCell>
        <mxCell id="kTx4A98cEadDEtc7m0b7-4" value="" style="endArrow=none;html=1;rounded=0;dashed=1;dashPattern=8 8;opacity=50;" parent="1" edge="1">
          <mxGeometry width="50" height="50" relative="1" as="geometry">
            <mxPoint x="440" y="400" as="sourcePoint" />
            <mxPoint x="440" y="600" as="targetPoint" />
          </mxGeometry>
        </mxCell>
        <mxCell id="kTx4A98cEadDEtc7m0b7-6" value="CK" style="text;strokeColor=none;align=center;fillColor=none;html=1;verticalAlign=middle;whiteSpace=wrap;rounded=0;" parent="1" vertex="1">
          <mxGeometry x="170" y="410" width="20" height="20" as="geometry" />
        </mxCell>
        <mxCell id="kTx4A98cEadDEtc7m0b7-8" value="" style="edgeStyle=none;orthogonalLoop=1;jettySize=auto;html=1;rounded=0;endArrow=none;endFill=0;" parent="1" edge="1">
          <mxGeometry width="80" relative="1" as="geometry">
            <mxPoint x="200" y="440" as="sourcePoint" />
            <mxPoint x="440" y="400" as="targetPoint" />
            <Array as="points">
              <mxPoint x="240" y="440" />
              <mxPoint x="240" y="400" />
              <mxPoint x="280" y="400" />
              <mxPoint x="280" y="440" />
              <mxPoint x="320" y="440" />
              <mxPoint x="320" y="400" />
              <mxPoint x="360" y="400" />
              <mxPoint x="360" y="440" />
              <mxPoint x="400" y="440" />
              <mxPoint x="400" y="400" />
            </Array>
          </mxGeometry>
        </mxCell>
        <mxCell id="kTx4A98cEadDEtc7m0b7-9" value="1" style="text;strokeColor=none;align=center;fillColor=none;html=1;verticalAlign=middle;whiteSpace=wrap;rounded=0;" parent="1" vertex="1">
          <mxGeometry x="230" y="370" width="20" height="20" as="geometry" />
        </mxCell>
        <mxCell id="kTx4A98cEadDEtc7m0b7-10" value="2" style="text;strokeColor=none;align=center;fillColor=none;html=1;verticalAlign=middle;whiteSpace=wrap;rounded=0;" parent="1" vertex="1">
          <mxGeometry x="310" y="370" width="20" height="20" as="geometry" />
        </mxCell>
        <mxCell id="kTx4A98cEadDEtc7m0b7-11" value="3" style="text;strokeColor=none;align=center;fillColor=none;html=1;verticalAlign=middle;whiteSpace=wrap;rounded=0;" parent="1" vertex="1">
          <mxGeometry x="390" y="370" width="20" height="20" as="geometry" />
        </mxCell>
        <mxCell id="kTx4A98cEadDEtc7m0b7-21" value="" style="edgeStyle=none;orthogonalLoop=1;jettySize=auto;html=1;rounded=0;" parent="1" edge="1">
          <mxGeometry width="80" relative="1" as="geometry">
            <mxPoint x="280" y="510" as="sourcePoint" />
            <mxPoint x="350" y="460" as="targetPoint" />
            <Array as="points" />
          </mxGeometry>
        </mxCell>
        <mxCell id="kTx4A98cEadDEtc7m0b7-22" value="" style="edgeStyle=none;orthogonalLoop=1;jettySize=auto;html=1;rounded=0;exitX=1;exitY=0.5;exitDx=0;exitDy=0;" parent="1" edge="1" source="kTx4A98cEadDEtc7m0b7-18">
          <mxGeometry width="80" relative="1" as="geometry">
            <mxPoint x="390" y="570" as="sourcePoint" />
            <mxPoint x="440" y="480" as="targetPoint" />
            <Array as="points" />
          </mxGeometry>
        </mxCell>
        <mxCell id="kTx4A98cEadDEtc7m0b7-23" value="" style="endArrow=none;html=1;rounded=0;dashed=1;dashPattern=8 8;opacity=50;" parent="1" edge="1">
          <mxGeometry width="50" height="50" relative="1" as="geometry">
            <mxPoint x="520" y="400" as="sourcePoint" />
            <mxPoint x="520" y="640" as="targetPoint" />
          </mxGeometry>
        </mxCell>
        <mxCell id="kTx4A98cEadDEtc7m0b7-24" value="4" style="text;strokeColor=none;align=center;fillColor=none;html=1;verticalAlign=middle;whiteSpace=wrap;rounded=0;" parent="1" vertex="1">
          <mxGeometry x="470" y="370" width="20" height="20" as="geometry" />
        </mxCell>
      </root>
    </mxGraphModel>
  </diagram>
</mxfile>
